<svg width="12" height="12" viewBox="0 0 12 12" fill="none" xmlns="http://www.w3.org/2000/svg">
<g id="&#229;&#164;&#141;&#229;&#136;&#182;&#230;&#150;&#135;&#228;&#187;&#182;" clip-path="url(#clip0_25_186)">
<path id="Vector" d="M7.48355 2.24925C7.72283 2.24925 7.93619 2.3011 8.12363 2.40479C8.31106 2.50847 8.47258 2.63609 8.60817 2.78764C8.74376 2.93918 8.84745 3.10269 8.91924 3.27817C8.99102 3.45364 9.02692 3.60917 9.02692 3.74477V10.5045C9.02692 10.7358 8.98105 10.9432 8.88933 11.1266C8.7976 11.3101 8.67796 11.4656 8.53041 11.5932C8.38285 11.7208 8.21734 11.8205 8.03389 11.8923C7.85044 11.9641 7.667 12 7.48355 12H1.58524C1.43369 12 1.26819 11.9561 1.08873 11.8684C0.909268 11.7807 0.74177 11.665 0.586237 11.5214C0.430704 11.3779 0.301092 11.2124 0.197404 11.0249C0.0937146 10.8375 0.0418701 10.6481 0.0418701 10.4566V3.79262C0.0418701 3.62512 0.0817505 3.45165 0.161511 3.27218C0.241272 3.09272 0.344961 2.92722 0.472578 2.77567C0.600195 2.62413 0.747752 2.4985 0.91525 2.3988C1.08275 2.2991 1.25822 2.24925 1.44167 2.24925H7.48355ZM6.77766 9.72682C6.98504 9.72682 7.16251 9.65504 7.31007 9.51147C7.45762 9.3679 7.5314 9.19242 7.5314 8.98504C7.5314 8.77767 7.45762 8.6002 7.31007 8.45264C7.16251 8.30508 6.98504 8.23131 6.77766 8.23131H2.29112C2.08374 8.23131 1.90628 8.30508 1.75872 8.45264C1.61116 8.6002 1.53738 8.77767 1.53738 8.98504C1.53738 9.19242 1.61116 9.3679 1.75872 9.51147C1.90628 9.65504 2.08374 9.72682 2.29112 9.72682H6.77766ZM6.77766 6.73579C6.98504 6.73579 7.16251 6.66401 7.31007 6.52044C7.45762 6.37687 7.5314 6.2014 7.5314 5.99402C7.5314 5.78664 7.45762 5.60917 7.31007 5.46162C7.16251 5.31406 6.98504 5.24028 6.77766 5.24028H2.29112C2.08374 5.24028 1.90628 5.31406 1.75872 5.46162C1.61116 5.60917 1.53738 5.78664 1.53738 5.99402C1.53738 6.2014 1.61116 6.37687 1.75872 6.52044C1.90628 6.66401 2.08374 6.73579 2.29112 6.73579H6.77766ZM8.89531 0C9.23828 0 9.55334 0.101695 9.84048 0.305085C10.1276 0.508475 10.3769 0.759721 10.5882 1.05882C10.7996 1.35793 10.9651 1.68096 11.0847 2.02792C11.2044 2.37488 11.2642 2.69192 11.2642 2.97906V9.332C11.2642 9.4995 11.2144 9.65304 11.1147 9.79262C11.015 9.9322 10.8933 10.0518 10.7497 10.1515C10.6062 10.2512 10.4506 10.331 10.2831 10.3908C10.1156 10.4506 9.96012 10.4806 9.81655 10.4806H9.76869V3.33799C9.70488 2.78764 9.5334 2.36491 9.25423 2.06979C8.97507 1.77468 8.60418 1.58325 8.14157 1.49551H2.30309C2.31106 1.47956 2.31505 1.45165 2.31505 1.41176C2.31505 1.25224 2.36291 1.08873 2.45862 0.921236C2.55433 0.753739 2.67996 0.602193 2.83549 0.4666C2.99102 0.331007 3.1645 0.219342 3.35593 0.131605C3.54735 0.0438684 3.73878 1.17188e-08 3.93021 1.17188e-08L8.89531 0Z" fill="white"/>
</g>
<defs>
<clipPath id="clip0_25_186">
<rect width="12" height="12" fill="white"/>
</clipPath>
</defs>
</svg>
