<svg width="23" height="20" viewBox="0 0 23 20" fill="none" xmlns="http://www.w3.org/2000/svg">
<g id="&#230;&#142;&#168;&#232;&#141;&#144;&#228;&#186;&#186; (1)">
<path id="Vector" d="M14.3603 5.78625C14.3603 3.70994 12.5855 2 10.4304 2C8.27523 2 6.50043 3.70992 6.50043 5.78625C6.50043 7.86259 8.27523 9.57252 10.4304 9.57252C12.5855 9.63359 14.3603 7.92366 14.3603 5.78625ZM20.9525 14.397C20.9525 14.3359 20.8891 14.2748 20.8257 14.2137L17.9733 11.4657C17.7832 11.2824 17.4028 11.2824 17.1493 11.4657C16.9591 11.6489 16.9591 12.0153 17.1493 12.2595L19.0509 14.0916H12.839C12.5221 14.0916 12.2686 14.3359 12.2686 14.6412C12.2686 14.9466 12.5221 15.1908 12.839 15.1908H19.1143L17.2127 17.0229C17.0225 17.2061 17.0225 17.5725 17.2127 17.8168C17.3394 17.9389 17.4662 18 17.593 18C17.7198 18 17.9099 17.9389 17.9733 17.8168L20.8257 15.0687C20.8891 15.0076 20.8891 14.9466 20.9525 14.8855C21.0158 14.6412 21.0158 14.5191 20.9525 14.397ZM12.9024 16.1679C11.9516 16.1679 11.191 15.4351 11.191 14.5191C11.191 13.603 11.9516 12.8702 12.9024 12.8702H16.3887C16.0717 12.626 15.945 12.1985 15.945 11.771V11.5267C14.4871 10.3053 12.5221 9.57252 10.4304 9.57252C6.50327 9.62435 3.16971 12.2274 2.25087 15.7765C1.97403 16.8458 2.89543 17.7557 4 17.7557H16.0083C15.9449 17.6336 15.945 17.4504 15.945 17.3282C15.945 16.9008 16.1351 16.5343 16.3887 16.229H12.9024L12.9024 16.1679Z" fill="white"/>
</g>
</svg>
