<svg width="22" height="22" viewBox="0 0 22 22" fill="none" xmlns="http://www.w3.org/2000/svg">
<g id="&#229;&#136;&#135;&#230;&#141;&#162;&#232;&#175;&#173;&#232;&#168;&#128; 1">
<path id="Vector" d="M18.1766 18.622C17.8097 18.6656 17.4769 18.4033 17.4335 18.0364C17.4288 17.9955 17.4277 17.9545 17.4303 17.9137V15.2711C17.4303 14.5464 16.954 14.5464 16.7744 14.5464C16.3172 14.5366 15.9384 14.8994 15.9287 15.3568C15.9285 15.3667 15.9285 15.3766 15.9287 15.3863V17.9141C15.9124 18.3202 15.5697 18.6362 15.1637 18.6197C14.7806 18.6042 14.4736 18.2972 14.4581 17.9141V13.915C14.4317 13.5448 14.7104 13.2234 15.0805 13.1972C15.1168 13.1946 15.1534 13.1951 15.1897 13.1983C15.3272 13.1869 15.465 13.2171 15.5851 13.2852C15.7052 13.3533 15.8019 13.456 15.8628 13.5799C16.2035 13.3254 16.619 13.1912 17.0442 13.1983C18.2067 13.1983 18.9015 13.92 18.9015 15.1325V17.9137C18.9058 18.0071 18.891 18.1004 18.8583 18.188C18.8255 18.2756 18.7753 18.3556 18.7107 18.4233C18.6398 18.4907 18.556 18.5432 18.4645 18.5776C18.3729 18.612 18.2753 18.6277 18.1775 18.6237L18.1766 18.622ZM13.1682 18.4618H10.2743C9.35537 18.4618 8.94545 18.0544 8.94545 17.139V13.064C8.94545 12.1505 9.35559 11.7412 10.2743 11.7412H13.0402C13.4252 11.7412 13.7373 12.0534 13.7373 12.4384C13.7373 12.8234 13.4252 13.1356 13.0402 13.1356H10.543C10.5168 13.1338 10.4904 13.1375 10.4657 13.1463C10.4685 13.1463 10.4625 13.1635 10.4625 13.2084V14.338H12.7398C13.0906 14.3024 13.4039 14.558 13.4396 14.9089C13.4432 14.945 13.4438 14.9813 13.4413 15.0176C13.4623 15.3755 13.1893 15.683 12.8311 15.704C12.8008 15.7057 12.7703 15.7055 12.74 15.7029H10.4607V16.9942C10.4599 17.0169 10.4625 17.0399 10.4683 17.0618C10.4923 17.0651 10.5166 17.0668 10.5409 17.067H13.1686C13.533 17.044 13.8471 17.3207 13.8701 17.6849C13.8716 17.7098 13.8718 17.7349 13.8705 17.7601C13.8995 18.1184 13.6327 18.4325 13.2743 18.4615C13.2391 18.4643 13.2039 18.4643 13.1686 18.4615H13.1682V18.4618ZM7.03699 10.3737C6.66403 10.4244 6.3207 10.1632 6.27 9.79023C6.26356 9.74275 6.26205 9.69484 6.26571 9.64693V7.95998H4.43373C3.44846 7.95998 3.0091 7.51912 3.0091 6.53535V4.51861C3.0091 3.53935 3.44996 3.10279 4.43373 3.10279H6.26571V2.42539C6.23606 2.05779 6.50998 1.73552 6.87758 1.70587C6.91883 1.70265 6.96008 1.70308 7.00133 1.70738C7.65145 1.70738 7.7883 2.09775 7.7883 2.42539V3.10408H9.63789C10.6232 3.10408 11.063 3.54107 11.063 4.51947V6.53664C11.063 7.52191 10.6221 7.96084 9.63789 7.96084H7.78916V9.64779C7.81602 10.0231 7.5335 10.3493 7.15817 10.3763C7.11777 10.3791 7.07738 10.3785 7.03721 10.3742V10.3737H7.03699ZM4.66662 4.53902C4.52762 4.53902 4.51473 4.55191 4.51473 4.69091V6.37099C4.51473 6.51128 4.52762 6.5246 4.66662 6.5246H6.26571V4.53902H4.66662ZM7.78938 6.52375H9.40694C9.54207 6.52375 9.55926 6.50656 9.55926 6.37185V4.6907C9.55926 4.55556 9.54207 4.53837 9.40694 4.53837H7.78895V6.52396H7.78938V6.52375ZM11.0425 20.6156C5.72408 20.5997 1.4257 16.2755 1.4416 10.957C1.44375 10.2051 1.5342 9.45615 1.71059 8.72525C1.81393 8.31705 2.22449 8.06611 2.63506 8.16043C3.04541 8.25947 3.29807 8.67197 3.19988 9.08232C2.14865 13.4293 4.82024 17.8052 9.16717 18.8564C9.7813 19.0049 10.4107 19.0811 11.0425 19.0833C11.4656 19.0837 11.8082 19.4268 11.808 19.8501C11.8076 20.2727 11.4651 20.6151 11.0425 20.6156ZM19.6038 13.9543C19.1808 13.9543 18.8377 13.6114 18.8377 13.1884C18.8377 13.125 18.8457 13.0617 18.8611 13.0002C19.9635 8.66423 17.3422 4.25564 13.0062 3.15328C12.364 2.99 11.7045 2.90621 11.0419 2.90363C10.6191 2.90363 10.2762 2.56095 10.2762 2.13814C10.2762 1.71533 10.6189 1.37244 11.0417 1.37244H11.0419C16.3608 1.38876 20.6594 5.714 20.643 11.0329C20.6407 11.8235 20.5408 12.6107 20.3459 13.3768C20.26 13.7163 19.9543 13.9543 19.6038 13.9543Z" fill="white"/>
</g>
</svg>
