<svg width="20" height="20" viewBox="0 0 20 20" fill="none" xmlns="http://www.w3.org/2000/svg">
<g id="&#233;&#147;&#190;&#230;&#142;&#165; (1)">
<path id="Vector" opacity="0.3" d="M8.50769 10.2462L6.56923 12.1846C6.2 12.5538 6.2 13.1077 6.56923 13.4769C6.93846 13.8462 7.49231 13.8462 7.86154 13.4769L9.8 11.5385L10.4462 12.1846C11.1846 12.9231 11.1846 14.0769 10.4462 14.8154L7.81538 17.4462C7.07692 18.1846 5.92308 18.1846 5.18462 17.4462L2.55385 14.8154C1.81538 14.0769 1.81538 12.9231 2.55385 12.1846L5.18462 9.55385C5.92308 8.81538 7.07692 8.81538 7.81538 9.55385L8.50769 10.2462Z" fill="white"/>
<path id="Vector_2" d="M11.4923 9.75384L13.4308 7.81538C13.8 7.44615 13.8 6.89231 13.4308 6.52308C13.0615 6.15385 12.5077 6.15385 12.1385 6.52308L10.2 8.46154L9.55385 7.81538C8.81538 7.07692 8.81538 5.92308 9.55385 5.18462L12.1846 2.55385C12.9231 1.81538 14.0769 1.81538 14.8154 2.55385L17.4462 5.18462C18.1846 5.92308 18.1846 7.07692 17.4462 7.81538L14.8154 10.4462C14.0769 11.1846 12.9231 11.1846 12.1846 10.4462L11.4923 9.75384Z" fill="white"/>
</g>
</svg>
