<svg width="48" height="34" viewBox="0 0 48 34" fill="none" xmlns="http://www.w3.org/2000/svg">
<g id="&#232;&#181;&#132;&#230;&#186;&#144; 1 1" clip-path="url(#clip0_1_80)">
<g id="&#229;&#155;&#190;&#229;&#177;&#130; 2">
<g id="&#229;&#155;&#190;&#229;&#177;&#130; 1">
<path id="Vector" d="M44.6271 21.3557C44.8817 20.0936 40.3993 18.0524 33.6448 16.1336C33.595 16.1235 33.548 16.108 33.5007 16.0942C32.4159 15.7665 31.899 14.9018 31.7045 14.4781C31.2384 13.0592 30.4123 11.7853 29.307 10.7808C28.2017 9.77638 26.8548 9.07562 25.3979 8.74694C23.9409 8.41826 22.4237 8.47289 20.9942 8.9055C19.5646 9.33812 18.2717 10.1339 17.2415 11.2153L17.236 11.2211C17.192 11.2675 17.1481 11.314 17.1057 11.3616C16.7816 11.6833 15.9104 12.4166 14.7249 12.301L14.5866 12.2844L14.5617 12.2793C7.58815 11.4336 2.66003 11.5767 2.40531 12.8396C2.15578 14.0767 6.4673 16.0653 13.0104 17.9527L13.4965 18.0914C14.0261 18.2846 14.8438 18.7243 15.2157 19.6478C15.2519 19.7683 15.2901 19.8875 15.3318 20.0065C15.3314 20.009 15.3309 20.0115 15.3303 20.014C15.8186 21.4225 16.6632 22.6806 17.7817 23.6661C18.9003 24.6516 20.2548 25.3309 21.7137 25.6379C23.1725 25.9449 24.6859 25.8692 26.1068 25.4182C27.5277 24.9672 28.8077 24.1562 29.8224 23.064L29.8232 23.0599C29.9194 22.9557 30.0133 22.8502 30.1043 22.7416C30.8868 21.9766 31.8936 21.8859 32.4884 21.9142C32.657 21.935 32.8257 21.9552 32.9946 21.9749C39.694 22.7532 44.3791 22.5853 44.6271 21.3557ZM27.1771 19.3645C26.7243 20.1268 26.0458 20.7296 25.2355 21.0894C24.4251 21.4492 23.523 21.5484 22.6539 21.373C21.7847 21.1977 20.9915 20.7567 20.384 20.1109C19.7765 19.4651 19.3847 18.6465 19.2628 17.7682C9.65975 15.6982 2.49898 13.6603 2.63765 12.9728C2.77631 12.2853 10.167 13.179 19.8212 14.9957C20.274 14.2334 20.9525 13.6307 21.7628 13.2709C22.5731 12.911 23.4753 12.8119 24.3444 12.9872C25.2135 13.1625 26.0067 13.6036 26.6142 14.2494C27.2217 14.8952 27.6136 15.7138 27.7355 16.592C37.3415 18.6601 44.4985 20.6998 44.3596 21.3881C44.2208 22.0764 36.8318 21.1788 27.1771 19.3645Z" fill="white"/>
<path id="Vector_2" d="M18.61 9.03564C17.4943 9.70445 16.5274 10.5945 15.7685 11.6509L16.0541 11.7085C16.7803 10.7245 17.694 9.89386 18.7427 9.26459L18.61 9.03564Z" fill="white"/>
<path id="Vector_3" d="M28.2913 8.9699C26.8566 8.13507 25.2285 7.69006 23.5687 7.67904C21.9089 7.66802 20.2751 8.09139 18.8294 8.9071L18.9655 9.13241C20.3687 8.34232 21.9538 7.9321 23.5642 7.9423C25.1745 7.95251 26.7543 8.38278 28.1474 9.19059L28.2913 8.9699Z" fill="white"/>
<path id="Vector_4" d="M28.6525 9.19223L28.5053 9.41226C30.5012 10.7019 31.9257 12.7087 32.4847 15.0182L32.7703 15.0758C32.2171 12.6529 30.7395 10.5418 28.6525 9.19223Z" fill="white"/>
<path id="Vector_5" d="M16.3256 23.9C15.1812 22.6683 14.372 21.1636 13.9754 19.5299L13.6732 19.4689C14.0674 21.1948 14.9084 22.7867 16.112 24.085L16.3256 23.9Z" fill="white"/>
<path id="Vector_6" d="M20.7485 26.6256C19.1646 26.1673 17.7234 25.3134 16.5606 24.1444L16.3503 24.3301C17.5541 25.5445 19.0493 26.4298 20.6929 26.9013L20.7485 26.6256Z" fill="white"/>
<path id="Vector_7" d="M29.6918 25.1469C30.4415 24.56 31.1044 23.8698 31.6605 23.0969L31.3583 23.036C30.8286 23.754 30.2031 24.3962 29.4992 24.9447L29.6918 25.1469Z" fill="white"/>
<path id="Vector_8" d="M29.223 25.1491C28.1298 25.9454 26.8829 26.5055 25.5615 26.7937C24.2401 27.0819 22.8732 27.0919 21.5477 26.8231C21.4165 26.7966 21.2861 26.7703 21.1583 26.7359L21.1029 27.0107C21.2314 27.0418 21.3612 27.0706 21.4924 27.0971C22.8623 27.375 24.2752 27.3634 25.6404 27.063C27.0055 26.7627 28.2928 26.1802 29.4195 25.3529L29.223 25.1491Z" fill="white"/>
<path id="Vector_9" d="M15.5772 7.7327C14.3605 8.69441 13.3309 9.87148 12.5395 11.2053L13.4196 11.3828C14.1334 10.2456 15.0358 9.23829 16.0881 8.40429" fill="white"/>
<path id="Vector_10" d="M22.1409 5.05852C20.0875 5.27159 18.1173 5.9833 16.4018 7.1317L16.9053 7.8096C18.5001 6.75018 20.3283 6.09386 22.2327 5.89704L22.1409 5.05852Z" fill="white"/>
<path id="Vector_11" d="M30.7126 7.28514C28.3935 5.66521 25.6006 4.86444 22.7755 5.00939L22.8652 5.85007C25.4668 5.72556 28.0371 6.4611 30.179 7.94307L30.7126 7.28514Z" fill="white"/>
<path id="Vector_12" d="M31.224 7.66306L30.6925 8.31884C33.051 10.1534 34.6309 12.81 35.1169 15.7583L35.9978 15.9359C35.5422 12.6627 33.83 9.69541 31.224 7.66306Z" fill="white"/>
<path id="Vector_13" d="M13.5678 21.9707C13.1059 21.0183 12.7842 20.004 12.6129 18.9595L11.7917 18.7939C11.9622 20.0268 12.3268 21.2249 12.8721 22.3436L13.5678 21.9707Z" fill="white"/>
<path id="Vector_14" d="M23.672 28.2089C21.6694 28.2397 19.6963 27.7244 17.9645 26.7183C16.2327 25.7123 14.8076 24.2536 13.8423 22.4987L13.1485 22.8712C14.1813 24.7496 15.7054 26.312 17.5576 27.3912C19.4098 28.4704 21.5206 29.0258 23.6641 28.998L23.672 28.2089Z" fill="white"/>
<path id="Vector_15" d="M32.8454 23.0404C31.9277 24.5004 30.6813 25.7255 29.2056 26.6178C27.7299 27.5101 26.066 28.0448 24.3468 28.1792L24.3362 28.9685C26.2409 28.8315 28.0842 28.2359 29.709 27.2326C31.3338 26.2292 32.6918 24.8478 33.6673 23.2062L32.8454 23.0404Z" fill="white"/>
<path id="Vector_16" d="M16.2525 10.2451L15.8652 9.90773C15.4726 10.3189 15.1141 10.7612 14.7931 11.2304L15.3452 11.3418C15.6215 10.9553 15.9246 10.5888 16.2525 10.2451Z" fill="white"/>
<path id="Vector_17" d="M20.4033 7.0929C18.7579 7.60151 17.2614 8.50385 16.0436 9.72165L16.4314 10.0651C17.589 8.91519 19.0085 8.06348 20.568 7.5832L20.4033 7.0929Z" fill="white"/>
<path id="Vector_18" d="M32.1038 11.0808L31.6747 11.3658C32.4424 12.4449 32.9891 13.6652 33.2835 14.9564L33.8356 15.0678C33.541 13.6331 32.9512 12.2753 32.1038 11.0808Z" fill="white"/>
<path id="Vector_19" d="M31.852 10.7396C30.5779 9.08346 28.8401 7.84352 26.8595 7.1774C24.879 6.51129 22.7451 6.4491 20.7291 6.99873L20.8896 7.48819C22.7982 6.97359 24.8164 7.03489 26.6903 7.66438C28.5642 8.29388 30.2101 9.46345 31.421 11.026L31.852 10.7396Z" fill="white"/>
</g>
</g>
</g>
<defs>
<clipPath id="clip0_1_80">
<rect width="43.0721" height="24" fill="white" transform="translate(4.79761 0.978882) rotate(11.4035)"/>
</clipPath>
</defs>
</svg>
