<svg t="1698499649168" class="icon" viewBox="0 0 1280 1024" version="1.1" xmlns="http://www.w3.org/2000/svg" p-id="26205" width="32" height="32"><path d="M640.14848 0c165.632 0 312.192 83.84 402.24 212.736 124.544 16.832 210.304 65.152 232.64 151.36 23.744 91.52-38.016 187.136-153.6 271.104C1068.05248 858.432 872.78848 1024 640.08448 1024c-137.6 0-262.208-57.984-352-151.552-150.4-10.176-258.048-61.376-282.88-156.864-23.36-90.24 33.28-180.48 142.528-262.336C175.95648 198.144 385.68448 0 640.14848 0z m290.816 742.208l-14.592 6.336c-62.72 26.88-131.2 50.752-203.712 70.784-72.064 19.968-142.592 34.56-209.6 43.712a355.648 355.648 0 0 0 137.088 27.392c118.528 0 223.872-58.112 290.816-148.224z m-290.816-608.64c-202.24 0-366.336 169.408-366.336 378.432 0 85.76 27.584 164.8 74.112 228.224 97.408-0.256 212.992-17.152 331.264-49.92 125.056-34.56 238.848-82.944 325.248-136.512A420.48 420.48 0 0 0 1006.54848 512c0-209.024-164.032-378.432-366.4-378.432z m-483.84 489.6l-5.376 6.72c-16.896 21.824-23.68 39.68-20.736 51.072 3.392 13.12 22.656 27.392 56.704 38.656a526.016 526.016 0 0 1-30.656-96.384z m960-254.144l1.152 4.416c6.4 23.68 11.264 48.128 14.336 73.088 15.232-20.48 21.12-37.184 18.368-47.872-2.56-9.792-14.016-20.288-33.92-29.632z" fill="#e6e6e6" p-id="26206"></path></svg>