<svg t="1698499669628" class="icon" viewBox="0 0 1024 1024" version="1.1" xmlns="http://www.w3.org/2000/svg" p-id="26515" width="32" height="32"><path d="M925.840823 610.230857c-77.970286 67.145143-180.370286 127.414857-300.617143 172.763429-116.297143 43.958857-228.425143 65.974857-327.68 67.876571-2.048 0-2.925714 2.852571-1.316571 4.242286A379.026286 379.026286 0 0 0 547.107109 950.857143c193.097143 0 352.987429-146.797714 382.390857-338.505143 0.219429-2.194286-2.048-3.584-3.657143-2.194286z m-728.868572 20.333714c68.461714 15.067429 192.292571 14.848 358.034286-47.542857 171.739429-64.804571 267.556571-150.820571 308.370286-208.018285a49.371429 49.371429 0 0 0 0.877714-56.027429c-69.997714-103.862857-185.782857-171.885714-317.220571-171.885714-214.089143 0-387.657143 179.931429-387.657143 401.92 0 13.458286 0.731429 26.916571 2.048 39.936a46.738286 46.738286 0 0 0 35.547428 41.618285z" fill="#f5e87a" p-id="26516"></path><path d="M1015.733394 270.701714c-23.990857-68.534857-96.256-110.372571-195.949714-124.342857-10.24-1.389714-15.506286 12.580571-7.021714 18.724572 25.526857 18.870857 49.005714 40.667429 70.436571 65.024a50.249143 50.249143 0 0 0 14.848 11.337142c27.062857 13.677714 45.787429 31.890286 53.394286 53.394286 31.451429 89.380571-114.102857 256.950857-373.174857 354.596572-259.072 97.645714-474.331429 66.194286-505.563429-23.186286-8.630857-25.014857-3.657143-56.027429 13.897143-90.038857a50.761143 50.761143 0 0 0 5.924571-20.772572c2.048-31.451429 7.314286-61.952 15.067429-91.501714 2.706286-10.386286-9.508571-17.993143-16.822857-10.24C16.163109 493.933714-16.751177 578.852571 8.336823 650.459429c50.395429 143.286857 310.857143 172.105143 593.408 65.462857 282.331429-106.057143 464.310857-301.860571 413.915428-445.147429z" fill="#f5e87a" p-id="26517"></path></svg>