<svg width="20" height="20" viewBox="0 0 20 20" fill="none" xmlns="http://www.w3.org/2000/svg">
<g id="&#229;&#155;&#162;&#233;&#152;&#159; (1)">
<path id="Vector" d="M11.5996 9.2461C13.752 9.71094 16.2559 11.2246 16.2559 15.5898C16.2559 16.7539 14.8008 16.7539 10.0879 16.7539C5.31641 16.7539 3.91992 16.7539 3.91992 15.5898C3.91992 11.2832 6.42188 9.71289 8.57617 9.2461C6.88867 8.31445 6.30664 6.16211 7.12109 4.41602C7.93555 2.66992 9.97266 2.0293 11.543 2.96094C13.1133 3.89258 13.7539 6.04492 12.8809 7.73242C12.5879 8.43164 12.123 8.89649 11.5996 9.2461Z" fill="white"/>
<path id="Vector_2" d="M6.73047 9.17578C6.91406 9.1211 6.96094 8.88282 6.80859 8.76563C5.45703 7.73047 5.04297 5.80469 5.7832 4.2168C5.89258 3.98242 6.02344 3.76758 6.17383 3.57422C6.29883 3.41407 6.16992 3.18164 5.9668 3.19922C5.0918 3.27344 4.26562 3.8125 3.84375 4.7168C3.25391 5.98047 3.56641 7.50586 4.61328 8.35742C4.75781 8.47657 4.71484 8.70703 4.53516 8.76368C2.91992 9.26758 1.24805 10.6094 1.24805 13.7793C1.24805 14.2656 1.54687 14.5 2.36523 14.6152C2.49609 14.6328 2.61719 14.5391 2.63086 14.4063C2.95312 11.1406 4.88672 9.72071 6.73047 9.17578ZM13.2715 9.17578C13.0879 9.1211 13.041 8.88282 13.1934 8.76563C14.5449 7.73047 14.959 5.80469 14.2188 4.2168C14.1094 3.98242 13.9785 3.76758 13.8281 3.57422C13.7031 3.41407 13.832 3.18164 14.0352 3.19922C14.9102 3.27344 15.7363 3.8125 16.1582 4.7168C16.748 5.98047 16.4355 7.50586 15.3887 8.35742C15.2441 8.47657 15.2871 8.70703 15.4668 8.76368C17.082 9.26758 18.7539 10.6094 18.7539 13.7793C18.7539 14.2656 18.4551 14.5 17.6367 14.6152C17.5059 14.6328 17.3848 14.5391 17.3711 14.4063C17.0488 11.1406 15.1152 9.72071 13.2715 9.17578Z" fill="white"/>
</g>
</svg>
