<svg t="1698499298955" class="icon" viewBox="0 0 1024 1024" version="1.1" xmlns="http://www.w3.org/2000/svg" p-id="15200" width="32" height="32"><path d="M806.7584 125.9008H217.3952A91.0336 91.0336 0 0 0 126.464 216.7808v589.4144a91.0336 91.0336 0 0 0 90.9312 90.88h589.3632a91.0336 91.0336 0 0 0 90.9312-90.88V216.7808a91.0336 91.0336 0 0 0-90.9312-90.88zM289.1776 398.9504h368.64l-45.2096-45.2096a32 32 0 1 1 45.2608-45.2096l99.84 99.7888a32 32 0 0 1-22.6304 54.6304h-445.44a32 32 0 0 1 0-64z m445.44 229.888h-368.64l45.2096 45.2096a32 32 0 0 1-45.2608 45.2608L266.5472 619.52a32 32 0 0 1 22.6304-54.6304h445.44a32 32 0 1 1 0 64z" fill="#f5e87a" p-id="15201"></path></svg>