<svg width="20" height="20" viewBox="0 0 20 20" fill="none" xmlns="http://www.w3.org/2000/svg">
<g id="&#231;&#148;&#168;&#230;&#136;&#183; (1) 1">
<path id="Vector" d="M9.81435 1.23312C12.2731 1.23312 14.2662 3.19375 14.2662 5.61187C14.2662 8.03062 12.2731 9.99125 9.81435 9.99125C7.3556 9.99125 5.36247 8.03062 5.36247 5.61187C5.36247 3.19312 7.35622 1.23312 9.81435 1.23312ZM9.81435 1.23312C12.2731 1.23312 14.2662 3.19375 14.2662 5.61187C14.2662 8.03062 12.2731 9.99125 9.81435 9.99125C7.3556 9.99125 5.36247 8.03062 5.36247 5.61187C5.36247 3.19312 7.35622 1.23312 9.81435 1.23312ZM8.14497 11.4512H11.8556C15.0318 11.4512 17.6062 13.9831 17.6062 17.1075V17.4719C17.6062 18.7031 15.0312 18.75 11.8556 18.75H8.14497C4.96872 18.75 2.39435 18.7481 2.39435 17.4719V17.1075C2.39435 13.9831 4.96872 11.4512 8.14497 11.4512Z" fill="white"/>
</g>
</svg>
