<svg width="20" height="20" viewBox="0 0 20 20" fill="none" xmlns="http://www.w3.org/2000/svg">
<g id="&#233;&#146;&#177;&#229;&#140;&#133; 1">
<path id="Vector" d="M11.3887 8.41016C11.0547 8.74414 10.8711 9.18359 10.8711 9.65039V10.3496C10.8711 10.8164 11.0547 11.2559 11.3887 11.5898C11.7227 11.9238 12.1621 12.1074 12.6289 12.1074H18.7344V7.89258H12.6289C12.1621 7.89258 11.7207 8.07617 11.3887 8.41016ZM13.3477 9.21875C13.7793 9.21875 14.1289 9.56836 14.1289 10C14.1289 10.4316 13.7793 10.7812 13.3477 10.7812C12.916 10.7812 12.5664 10.4316 12.5664 10C12.5664 9.56836 12.916 9.21875 13.3477 9.21875Z" fill="white"/>
<path id="Vector_2" d="M16.3555 2.35938H3.64453C2.33203 2.35938 1.26367 3.42578 1.26367 4.74023V15.2598C1.26367 16.5723 2.33008 17.6406 3.64453 17.6406H16.3535C17.666 17.6406 18.7344 16.5742 18.7344 15.2598V13.084H12.6289C11.125 13.084 9.89453 11.8535 9.89453 10.3496V9.65039C9.89453 8.14648 11.125 6.91602 12.6289 6.91602H18.7344V4.74023C18.7344 3.42773 17.666 2.35938 16.3555 2.35938Z" fill="white"/>
</g>
</svg>
